<mxfile host="Electron" modified="2023-09-17T08:36:03.467Z" agent="Mozilla/5.0 (Windows NT 10.0; Win64; x64) AppleWebKit/537.36 (KHTML, like Gecko) draw.io/21.4.0 Chrome/112.0.5615.204 Electron/24.5.1 Safari/537.36" etag="KYGuGGjO2c9m5Kb5dM3R" version="21.4.0" type="device">
  <diagram name="Page-1" id="-rwXF4MAfiNaSpwIAwEC">
    <mxGraphModel dx="863" dy="505" grid="1" gridSize="10" guides="1" tooltips="1" connect="1" arrows="1" fold="1" page="1" pageScale="1" pageWidth="850" pageHeight="1100" math="0" shadow="0">
      <root>
        <mxCell id="0" />
        <mxCell id="1" parent="0" />
        <mxCell id="TPIRKc2NeO6J7MrL7H3M-2" value="" style="rounded=0;whiteSpace=wrap;html=1;fillColor=none;" parent="1" vertex="1">
          <mxGeometry x="160" y="120" width="560" height="320" as="geometry" />
        </mxCell>
        <mxCell id="TPIRKc2NeO6J7MrL7H3M-3" value="&lt;font style=&quot;font-size: 15px;&quot;&gt;DETAILS INTRUSMENT PAGE&lt;/font&gt;" style="rounded=0;whiteSpace=wrap;html=1;fillColor=#0050ef;fontColor=#ffffff;strokeColor=#001DBC;" parent="1" vertex="1">
          <mxGeometry x="160" y="90" width="560" height="30" as="geometry" />
        </mxCell>
        <mxCell id="TPIRKc2NeO6J7MrL7H3M-4" value="X" style="rounded=0;whiteSpace=wrap;html=1;fillColor=#e51400;fontColor=#ffffff;strokeColor=#B20000;" parent="1" vertex="1">
          <mxGeometry x="680" y="90" width="40" height="30" as="geometry" />
        </mxCell>
        <mxCell id="TPIRKc2NeO6J7MrL7H3M-5" value="HEADER" style="rounded=0;whiteSpace=wrap;html=1;fontSize=15;" parent="1" vertex="1">
          <mxGeometry x="170" y="130" width="540" height="30" as="geometry" />
        </mxCell>
        <mxCell id="TPIRKc2NeO6J7MrL7H3M-6" value="FOOTER" style="rounded=0;whiteSpace=wrap;html=1;fontSize=15;" parent="1" vertex="1">
          <mxGeometry x="170" y="400" width="540" height="30" as="geometry" />
        </mxCell>
        <mxCell id="5rQDhxGV9Mdj1zxBR4IK-1" value="Image 1" style="rounded=0;whiteSpace=wrap;html=1;" vertex="1" parent="1">
          <mxGeometry x="200" y="190" width="60" height="50" as="geometry" />
        </mxCell>
        <mxCell id="5rQDhxGV9Mdj1zxBR4IK-2" value="Image 2" style="rounded=0;whiteSpace=wrap;html=1;" vertex="1" parent="1">
          <mxGeometry x="200" y="255" width="60" height="50" as="geometry" />
        </mxCell>
        <mxCell id="5rQDhxGV9Mdj1zxBR4IK-3" value="IMAGE MAIN" style="rounded=0;whiteSpace=wrap;html=1;" vertex="1" parent="1">
          <mxGeometry x="295" y="190" width="130" height="120" as="geometry" />
        </mxCell>
        <mxCell id="5rQDhxGV9Mdj1zxBR4IK-5" value="NAME OF THE INSTRUMENT" style="text;html=1;strokeColor=none;fillColor=none;align=center;verticalAlign=middle;whiteSpace=wrap;rounded=0;fontStyle=1" vertex="1" parent="1">
          <mxGeometry x="480" y="190" width="190" height="30" as="geometry" />
        </mxCell>
        <mxCell id="5rQDhxGV9Mdj1zxBR4IK-6" value="A" style="rounded=0;whiteSpace=wrap;html=1;" vertex="1" parent="1">
          <mxGeometry x="510" y="235" width="30" height="30" as="geometry" />
        </mxCell>
        <mxCell id="5rQDhxGV9Mdj1zxBR4IK-7" value="B" style="rounded=0;whiteSpace=wrap;html=1;" vertex="1" parent="1">
          <mxGeometry x="560" y="235" width="30" height="30" as="geometry" />
        </mxCell>
        <mxCell id="5rQDhxGV9Mdj1zxBR4IK-8" value="C" style="rounded=0;whiteSpace=wrap;html=1;" vertex="1" parent="1">
          <mxGeometry x="610" y="235" width="30" height="30" as="geometry" />
        </mxCell>
        <mxCell id="5rQDhxGV9Mdj1zxBR4IK-9" value="Quantity" style="rounded=0;whiteSpace=wrap;html=1;" vertex="1" parent="1">
          <mxGeometry x="490" y="285" width="70" height="25" as="geometry" />
        </mxCell>
        <mxCell id="5rQDhxGV9Mdj1zxBR4IK-11" value="BUY" style="rounded=0;whiteSpace=wrap;html=1;" vertex="1" parent="1">
          <mxGeometry x="512.5" y="330" width="125" height="30" as="geometry" />
        </mxCell>
        <mxCell id="5rQDhxGV9Mdj1zxBR4IK-12" value="Information describing the instrument" style="text;html=1;strokeColor=none;fillColor=none;align=center;verticalAlign=middle;whiteSpace=wrap;rounded=0;fontStyle=1" vertex="1" parent="1">
          <mxGeometry x="220" y="340" width="150" height="50" as="geometry" />
        </mxCell>
      </root>
    </mxGraphModel>
  </diagram>
</mxfile>
